<svg width="40" height="40" viewBox="0 0 40 40" fill="none" xmlns="http://www.w3.org/2000/svg">
<rect width="40" height="40" rx="12" fill="#EEEEEE"/>
<path d="M28.0859 17.0979C28.2944 16.8912 28.4082 16.6282 28.4082 16.3181C28.4082 15.6981 27.9152 15.2002 27.2896 15.2002C26.9768 15.2002 26.6924 15.3317 26.4744 15.5478L19.9906 22.124L13.5257 15.5478C13.3077 15.3317 13.0138 15.2002 12.7105 15.2002C12.0848 15.2002 11.5919 15.6981 11.5919 16.3181C11.5919 16.6282 11.7057 16.8912 11.9142 17.0979L19.1185 24.4069C19.3649 24.6699 19.6683 24.792 20 24.8014C20.3318 24.8014 20.6162 24.6699 20.8721 24.4069L28.0859 17.0979Z" fill="#111111"/>
</svg>
