<svg width="40" height="40" viewBox="0 0 40 40" fill="none" xmlns="http://www.w3.org/2000/svg">
<rect width="40" height="40" rx="12" fill="white"/>
<path d="M21.9353 25.3906C22.0731 25.5296 22.2484 25.6055 22.4551 25.6055C22.8685 25.6055 23.2004 25.2769 23.2004 24.8598C23.2004 24.6512 23.1127 24.4616 22.9687 24.3163L18.5846 19.9937L22.9687 15.6838C23.1127 15.5385 23.2004 15.3426 23.2004 15.1403C23.2004 14.7233 22.8685 14.3946 22.4551 14.3946C22.2484 14.3946 22.0731 14.4705 21.9353 14.6095L17.0626 19.4123C16.8873 19.5766 16.8058 19.7789 16.7996 20.0001C16.7996 20.2212 16.8873 20.4108 17.0626 20.5814L21.9353 25.3906Z" fill="#111111"/>
</svg>
