<svg width="749" height="48" viewBox="0 0 749 48" fill="none" xmlns="http://www.w3.org/2000/svg">
<path fill-rule="evenodd" clip-rule="evenodd" d="M6.01084 8.30392L6.54391 7.38142L7.40078 6.76605L8.16016 6.41992L40.9982 6.50692L41.8933 7.00192L42.8454 7.82055L42.9866 40.7073L42.3903 41.3547L41.1984 41.9069L7.89072 42.0464L6.73703 41.4888L5.91016 40.4891L6.01084 8.30392ZM7.78272 35.0909L41.1658 35.0684L41.2605 8.37161L7.90234 8.26961L7.78272 35.0909V35.0909ZM14.778 39.8669L19.2125 39.9063L19.2332 39.2748L15.5377 39.2411L15.5745 38.5533L19.2033 38.5683L19.2328 38.0922L15.5996 38.0622C15.5996 38.0622 15.5908 37.304 15.6003 37.2129C15.6099 37.1217 19.2367 37.304 19.2367 37.304L19.2273 36.8277L14.8151 36.8454L14.778 39.8669V39.8669ZM35.5905 39.6794L40.025 39.7188L40.0457 39.0873L36.3502 39.0536L36.387 38.3658L40.0158 38.3808L40.0453 37.9047L36.4121 37.8747C36.4121 37.8747 36.4033 37.1165 36.4128 37.0254C36.4224 36.9342 40.0492 37.1165 40.0492 37.1165L40.0398 36.6402L35.6276 36.6579L35.5905 39.6794V39.6794ZM20.6508 36.8607L20.6278 39.7981L26.4602 39.8253L26.4643 36.8729L25.3667 36.8579L25.3983 39.0794L23.9357 39.1066L23.906 36.8791L22.9123 36.8452L22.934 39.1346L21.5085 39.0905L21.4685 36.8517L20.651 36.8607H20.6508ZM27.8927 36.8439L27.8229 39.8786L28.6397 39.8656C28.6397 39.8656 28.6115 36.8956 28.5877 36.8482C28.5639 36.8006 27.8927 36.8441 27.8927 36.8441V36.8439ZM9.02509 36.8712L8.99941 39.8812L9.84203 39.8617L9.84034 38.6795L11.685 38.7033L12.4061 39.7145L13.578 39.7235L12.6422 38.7183L13.439 38.1682L13.4017 36.7565L9.02509 36.8712ZM30.0251 36.8712L29.9994 39.8812L30.842 39.8617L30.8403 38.6795L32.685 38.7033L33.4061 39.7145L34.578 39.7235L33.6422 38.7183L34.439 38.1682L34.4017 36.7565L30.0251 36.8712Z" fill="#434343"/>
<path fill-rule="evenodd" clip-rule="evenodd" d="M9.88788 27.5564L14.0393 27.4973L16.8196 26.9586L19.4476 25.9011L20.5321 25.2668L21.8155 26.1184L23.377 26.8801L21.2397 28.1751L19.1637 29.2225L17.3374 29.8699L15.181 30.1919L9.89219 30.2894L9.88788 27.5564ZM9.81644 23.0357L12.1555 23.0535L13.5267 22.7269L14.8977 22.1309L16.6208 22.9836L18.3919 23.8405L16.2552 25.0399L14.0251 25.554L12.1602 25.8205L9.71875 25.858L9.81644 23.0357Z" fill="#434343"/>
<path fill-rule="evenodd" clip-rule="evenodd" d="M9.85938 20.0793L12.5826 20.2308L15.1345 21.1068L17.6862 22.2686L19.9137 23.3321L22.1987 24.8938L24.3887 26.3409L26.407 27.6722L29.0813 28.8566L31.7854 29.9803L33.2136 30.2278L39.2134 30.2265L39.2209 27.3812L34.4027 27.533L31.4624 26.6681L28.33 25.3035L25.8706 23.5743L23.2407 21.8257L20.545 20.3557L17.9714 18.9333L15.2086 17.6842L13.0324 17.1836L9.90025 17.2187L9.85938 20.0793Z" fill="#434343"/>
<path fill-rule="evenodd" clip-rule="evenodd" d="M9.90234 15.6453L13.9353 15.6548L16.1442 16.0928L18.4865 17.0641L20.6384 18.1684L23.3806 19.8063L25.5895 21.3678L28.465 23.1387L30.9978 24.4146L33.6067 25.4429L35.5492 25.8046L39.4417 25.8226L39.44 22.9975L36.1154 23.1308L33.0215 22.0737L30.0618 20.3819L26.7187 18.4594L23.645 16.441L20.7625 14.7683L18.0404 13.5096L16.2162 13.0098L15.3607 12.8359L9.92034 12.9558L9.90234 15.6453Z" fill="#434343"/>
<path fill-rule="evenodd" clip-rule="evenodd" d="M39.4507 19.9343L39.4944 16.9066L36.0739 16.9426L34.4786 17.2473L32.3831 17.8758L30.7491 18.6757L30.1339 19.0184L31.8454 19.8719L33.5591 20.8051L35.4442 20.2666L36.8916 19.9975L39.4507 19.9343ZM39.2334 15.5465L39.3238 12.5742L35.5948 12.5924L32.9237 12.6102L30.4629 13.2768L27.8685 14.4764L25.8697 15.9415L25.8844 16.318L27.1412 17.0607L28.5122 18.0128L30.3403 16.9748L32.4159 16.2635L35.0439 15.6852L39.2334 15.5465ZM10.0035 37.5014L9.98438 38.168L12.2237 38.1852L12.3189 37.4932L10.0035 37.5014ZM31.0035 37.5014L30.9844 38.168L33.2237 38.1852L33.3189 37.4932L31.0035 37.5014Z" fill="#434343"/>
<path fill-rule="evenodd" clip-rule="evenodd" d="M566.655 8.30392L567.188 7.38142L568.045 6.76605L568.805 6.41992L601.643 6.50692L602.538 7.00192L603.49 7.82055L603.631 40.7073L603.035 41.3547L601.843 41.9069L568.535 42.0464L567.382 41.4888L566.555 40.4891L566.655 8.30392ZM568.427 35.0909L601.81 35.0684L601.905 8.37161L568.547 8.26961L568.427 35.0909V35.0909ZM575.422 39.8669L579.857 39.9063L579.878 39.2748L576.182 39.2411L576.219 38.5533L579.848 38.5683L579.877 38.0922L576.244 38.0622C576.244 38.0622 576.235 37.304 576.245 37.2129C576.254 37.1217 579.881 37.304 579.881 37.304L579.872 36.8277L575.46 36.8454L575.422 39.8669V39.8669ZM596.235 39.6794L600.67 39.7188L600.69 39.0873L596.995 39.0536L597.031 38.3658L600.66 38.3808L600.69 37.9047L597.057 37.8747C597.057 37.8747 597.048 37.1165 597.057 37.0254C597.067 36.9342 600.694 37.1165 600.694 37.1165L600.684 36.6402L596.272 36.6579L596.235 39.6794V39.6794ZM581.295 36.8607L581.272 39.7981L587.105 39.8253L587.109 36.8729L586.011 36.8579L586.043 39.0794L584.58 39.1066L584.551 36.8791L583.557 36.8452L583.579 39.1346L582.153 39.0905L582.113 36.8517L581.296 36.8607H581.295ZM588.537 36.8439L588.467 39.8786L589.284 39.8656C589.284 39.8656 589.256 36.8956 589.232 36.8482C589.208 36.8006 588.537 36.8441 588.537 36.8441V36.8439ZM569.67 36.8712L569.644 39.8812L570.487 39.8617L570.485 38.6795L572.329 38.7033L573.051 39.7145L574.222 39.7235L573.287 38.7183L574.084 38.1682L574.046 36.7565L569.67 36.8712ZM590.67 36.8712L590.644 39.8812L591.487 39.8617L591.485 38.6795L593.329 38.7033L594.051 39.7145L595.222 39.7235L594.287 38.7183L595.084 38.1682L595.046 36.7565L590.67 36.8712Z" fill="#434343"/>
<path fill-rule="evenodd" clip-rule="evenodd" d="M570.532 27.5564L574.684 27.4973L577.464 26.9586L580.092 25.9011L581.177 25.2668L582.46 26.1184L584.022 26.8801L581.884 28.1751L579.808 29.2225L577.982 29.8699L575.826 30.1919L570.537 30.2894L570.532 27.5564ZM570.461 23.0357L572.8 23.0535L574.171 22.7269L575.542 22.1309L577.265 22.9836L579.036 23.8405L576.9 25.0399L574.67 25.554L572.805 25.8205L570.363 25.858L570.461 23.0357Z" fill="#434343"/>
<path fill-rule="evenodd" clip-rule="evenodd" d="M570.504 20.0793L573.227 20.2308L575.779 21.1068L578.331 22.2686L580.558 23.3321L582.843 24.8938L585.033 26.3409L587.052 27.6722L589.726 28.8566L592.43 29.9803L593.858 30.2278L599.858 30.2265L599.865 27.3812L595.047 27.533L592.107 26.6681L588.975 25.3035L586.515 23.5743L583.885 21.8257L581.19 20.3557L578.616 18.9333L575.853 17.6842L573.677 17.1836L570.545 17.2187L570.504 20.0793Z" fill="#434343"/>
<path fill-rule="evenodd" clip-rule="evenodd" d="M570.547 15.6453L574.58 15.6548L576.789 16.0928L579.131 17.0641L581.283 18.1684L584.025 19.8063L586.234 21.3678L589.11 23.1387L591.642 24.4146L594.251 25.4429L596.194 25.8046L600.086 25.8226L600.084 22.9975L596.76 23.1308L593.666 22.0737L590.706 20.3819L587.363 18.4594L584.29 16.441L581.407 14.7683L578.685 13.5096L576.861 13.0098L576.005 12.8359L570.565 12.9558L570.547 15.6453Z" fill="#434343"/>
<path fill-rule="evenodd" clip-rule="evenodd" d="M600.095 19.9343L600.139 16.9066L596.718 16.9426L595.123 17.2473L593.028 17.8758L591.394 18.6757L590.778 19.0184L592.49 19.8719L594.204 20.8051L596.089 20.2666L597.536 19.9975L600.095 19.9343ZM599.878 15.5465L599.968 12.5742L596.239 12.5924L593.568 12.6102L591.107 13.2768L588.513 14.4764L586.514 15.9415L586.529 16.318L587.786 17.0607L589.157 18.0128L590.985 16.9748L593.06 16.2635L595.688 15.6852L599.878 15.5465ZM570.648 37.5014L570.629 38.168L572.868 38.1852L572.963 37.4932L570.648 37.5014ZM591.648 37.5014L591.629 38.168L593.868 38.1852L593.963 37.4932L591.648 37.5014Z" fill="#434343"/>
<path fill-rule="evenodd" clip-rule="evenodd" d="M304.318 3.00013C299.332 3.0008 294.509 4.7752 290.712 8.00592C286.915 11.2366 284.391 15.7129 283.592 20.634C282.793 25.5551 283.77 30.6 286.35 34.8663C288.93 39.1326 292.943 42.3419 297.673 43.9201C298.723 44.1151 299.173 43.4701 299.173 42.9151V39.3451C293.338 40.6051 292.108 36.5251 292.108 36.5251C291.697 35.2394 290.834 34.1465 289.678 33.4501C287.773 32.1601 289.828 32.1751 289.828 32.1751C290.493 32.2691 291.128 32.5139 291.684 32.8909C292.241 33.2679 292.704 33.767 293.038 34.3501C293.619 35.3922 294.59 36.1609 295.737 36.4872C296.885 36.8135 298.115 36.6707 299.158 36.0901C299.242 35.0258 299.711 34.0288 300.478 33.2851C295.828 32.7451 290.923 30.9451 290.923 22.9051C290.889 20.817 291.662 18.7964 293.083 17.2651C292.44 15.4564 292.515 13.4701 293.293 11.7151C293.293 11.7151 295.048 11.1451 299.068 13.8601C302.505 12.9225 306.13 12.9225 309.568 13.8601C313.573 11.1451 315.328 11.7151 315.328 11.7151C316.105 13.4701 316.18 15.4564 315.538 17.2651C316.958 18.7964 317.732 20.817 317.698 22.9051C317.698 30.9751 312.793 32.7451 308.113 33.2701C308.614 33.7783 309 34.388 309.246 35.0581C309.492 35.7283 309.591 36.4433 309.538 37.1551V42.9151C309.538 43.6051 309.913 44.1301 311.038 43.9201C315.773 42.3399 319.79 39.1244 322.37 34.8503C324.949 30.5762 325.921 25.523 325.113 20.5969C324.304 15.6708 321.766 11.194 317.955 7.96928C314.145 4.74457 309.31 2.98288 304.318 3.00013V3.00013Z" fill="#434343"/>
<g clip-path="url(#clip0_608_3862)">
<path d="M468.479 25.1537V20.7542C468.479 17.0312 464.756 15.0017 461.711 15.0017C459.592 15.1672 457.578 15.9959 455.957 17.3702C455.258 16.6335 454.419 16.0442 453.489 15.6371C452.559 15.2301 451.557 15.0135 450.542 15.0002C448.402 15.0732 446.36 15.9145 444.789 17.3702C444.217 16.5734 443.45 15.937 442.561 15.522C441.672 15.107 440.692 14.9273 439.713 15.0002C438.703 14.9221 437.692 15.1387 436.802 15.6238C435.913 16.1089 435.183 16.8417 434.702 17.7332L430.238 27.8612L425.279 16.5002C425.014 15.8944 424.52 15.4178 423.906 15.1745C423.291 14.9311 422.605 14.9407 421.997 15.2012C421.689 15.3328 421.411 15.5249 421.178 15.766C420.946 16.0071 420.764 16.2924 420.644 16.6049C420.523 16.9175 420.467 17.251 420.478 17.5857C420.489 17.9204 420.567 18.2496 420.707 18.5537L426.852 31.9217C426.852 31.9217 427.868 34.2917 429.897 34.2917C430.521 34.3841 431.157 34.2684 431.708 33.9625C432.258 33.6566 432.693 33.1776 432.944 32.5997C433.412 31.8947 436.965 24.4247 439.106 19.8947C439.189 19.72 439.329 19.5788 439.503 19.4942C439.677 19.4096 439.874 19.3868 440.063 19.4294C440.252 19.4719 440.42 19.5775 440.541 19.7285C440.662 19.8796 440.727 20.0673 440.727 20.2607V31.4912C440.718 32.19 440.974 32.8664 441.442 33.3846C441.911 33.9029 442.559 34.2248 443.255 34.2857C443.625 34.3103 443.996 34.2588 444.345 34.1342C444.694 34.0096 445.014 33.8146 445.285 33.5613C445.555 33.308 445.771 33.0019 445.919 32.6618C446.066 32.3217 446.142 31.9549 446.142 31.5842V22.2767C446.16 21.5252 446.47 20.8103 447.008 20.285C447.545 19.7596 448.267 19.4654 449.019 19.4654C449.77 19.4654 450.492 19.7596 451.03 20.285C451.567 20.8103 451.878 21.5252 451.895 22.2767V31.5842C451.895 32.3023 452.18 32.9909 452.688 33.4987C453.196 34.0065 453.884 34.2917 454.602 34.2917C455.32 34.2917 456.009 34.0065 456.517 33.4987C457.025 32.9909 457.31 32.3023 457.31 31.5842V22.2767C457.31 21.5137 457.613 20.7819 458.153 20.2424C458.692 19.7028 459.424 19.3997 460.187 19.3997C460.95 19.3997 461.682 19.7028 462.221 20.2424C462.761 20.7819 463.064 21.5137 463.064 22.2767V31.5842C463.064 32.3023 463.349 32.9909 463.857 33.4987C464.365 34.0065 465.053 34.2917 465.771 34.2917C466.489 34.2917 467.178 34.0065 467.686 33.4987C468.194 32.9909 468.479 32.3023 468.479 31.5842V25.1537Z" fill="#434343"/>
</g>
<path fill-rule="evenodd" clip-rule="evenodd" d="M157.153 18.27C157.153 18.27 156.293 18.27 156.157 18.0815C156.022 17.8931 155.865 17.5207 155.876 16.9728C155.887 16.4251 155.98 16.3691 156.201 15.881C156.421 15.3928 156.499 15.2073 156.898 14.7112C157.296 14.2151 157.451 14.0467 158.066 13.5575C158.681 13.0685 158.711 12.9881 159.411 12.7115C160.111 12.435 160.461 12.299 161.521 12.1925C162.582 12.0864 162.36 12.1173 163.165 12.3352C163.971 12.5531 164.111 12.5565 164.956 13.122C165.801 13.6873 166.53 14.5863 166.53 14.5863L167.434 12.8544L168.796 11.0675L170.897 8.89589L171.71 8.87695L171.971 9.75633L170.906 10.7576L169.251 12.8707L168.016 15.2302C168.016 15.2302 169.134 15.1443 170.229 15.3403C171.324 15.5362 171.217 15.4006 172.072 15.956C172.927 16.5114 173.295 16.5875 174.072 17.8363C174.848 19.085 174.837 19.184 174.996 20.6583C175.154 22.1326 175.107 22.2731 174.662 23.3274C174.216 24.3817 173.284 24.7102 173.284 24.7102L172.151 23.9865C172.151 23.9865 172.122 24.7059 171.931 25.3275C171.741 25.9488 171.501 26.688 170.945 27.921C170.388 29.154 170.22 29.562 169.361 31.0231C168.502 32.4845 168.511 32.4249 167.568 33.6663C166.625 34.908 166.533 35.0253 165.419 36.2145C164.305 37.4034 164.405 37.5532 163.224 38.3036C162.042 39.0538 160.411 39.3941 160.411 39.3941C160.411 39.3941 159.054 39.3736 157.91 38.6445C156.766 37.9155 156.293 36.7693 156.293 36.7693C156.293 36.7693 155.735 35.4018 155.375 33.9268C155.015 32.4521 155.05 32.601 154.941 31.2324C154.831 29.864 154.856 29.6238 154.903 28.0243C154.95 26.4245 154.906 26.4196 155.127 24.885C155.348 23.3503 155.354 23.0336 155.861 21.3791C156.368 19.7244 157.153 18.27 157.153 18.27V18.27ZM158.419 18.0581C158.419 18.0581 157.486 19.2811 156.827 21.1305C156.169 22.9796 155.915 25.0948 155.915 25.0948C155.915 25.0948 155.717 26.5222 155.694 28.2496C155.671 29.9773 155.613 29.9797 155.828 31.71C156.043 33.4402 156.231 34.0704 156.546 35.106C156.862 36.1415 157.444 37.0156 157.444 37.0156C157.444 37.0156 158.099 38.0175 158.984 38.3891C159.869 38.7605 160.238 38.691 160.912 38.4716C161.586 38.2522 162.943 37.4656 164.09 36.5242C165.237 35.583 166.161 34.1655 166.161 34.1655C166.161 34.1655 167.639 32.2228 168.534 30.7685C169.428 29.3143 169.582 28.9066 170.153 27.6742C170.724 26.4418 170.949 26.0178 171.159 25.0983C171.369 24.1788 171.369 23.0396 171.369 23.0396L169.683 21.1475L168.137 22.8735C168.137 22.8735 166.954 23.7594 166.025 23.9711C165.097 24.1828 164.916 24.0868 164.102 23.7937C163.287 23.5006 163.148 23.4346 162.573 22.7287C161.997 22.0228 161.724 20.8781 161.724 20.8781C161.724 20.8781 161.589 18.8533 161.578 18.4106C161.567 17.9681 161.638 17.5261 161.638 17.5261L158.419 18.0581Z" fill="#434343"/>
<path fill-rule="evenodd" clip-rule="evenodd" d="M717.801 18.27C717.801 18.27 716.941 18.27 716.806 18.0815C716.67 17.8931 716.513 17.5207 716.524 16.9728C716.535 16.4251 716.629 16.3691 716.849 15.881C717.07 15.3928 717.148 15.2073 717.546 14.7112C717.944 14.2151 718.1 14.0467 718.714 13.5575C719.329 13.0685 719.359 12.9881 720.059 12.7115C720.76 12.435 721.109 12.299 722.17 12.1925C723.23 12.0864 723.008 12.1173 723.814 12.3352C724.619 12.5531 724.759 12.5565 725.604 13.122C726.45 13.6873 727.179 14.5863 727.179 14.5863L728.083 12.8544L729.445 11.0675L731.546 8.89589L732.358 8.87695L732.619 9.75633L731.555 10.7576L729.9 12.8707L728.664 15.2302C728.664 15.2302 729.783 15.1443 730.878 15.3403C731.973 15.5362 731.865 15.4006 732.72 15.956C733.575 16.5114 733.944 16.5875 734.72 17.8363C735.497 19.085 735.486 19.184 735.644 20.6583C735.803 22.1326 735.756 22.2731 735.31 23.3274C734.865 24.3817 733.932 24.7102 733.932 24.7102L732.799 23.9865C732.799 23.9865 732.77 24.7059 732.58 25.3275C732.389 25.9488 732.15 26.688 731.593 27.921C731.037 29.154 730.868 29.562 730.009 31.0231C729.151 32.4845 729.159 32.4249 728.217 33.6663C727.274 34.908 727.182 35.0253 726.068 36.2145C724.954 37.4034 725.054 37.5532 723.872 38.3036C722.69 39.0538 721.06 39.3941 721.06 39.3941C721.06 39.3941 719.703 39.3736 718.559 38.6445C717.415 37.9155 716.941 36.7693 716.941 36.7693C716.941 36.7693 716.384 35.4018 716.023 33.9268C715.663 32.4521 715.699 32.601 715.589 31.2324C715.48 29.864 715.505 29.6238 715.552 28.0243C715.599 26.4245 715.554 26.4196 715.775 24.885C715.996 23.3503 716.003 23.0336 716.51 21.3791C717.016 19.7244 717.801 18.27 717.801 18.27V18.27ZM719.068 18.0581C719.068 18.0581 718.134 19.2811 717.476 21.1305C716.818 22.9796 716.564 25.0948 716.564 25.0948C716.564 25.0948 716.365 26.5222 716.343 28.2496C716.32 29.9773 716.262 29.9797 716.477 31.71C716.692 33.4402 716.879 34.0704 717.195 35.106C717.51 36.1415 718.093 37.0156 718.093 37.0156C718.093 37.0156 718.747 38.0175 719.632 38.3891C720.517 38.7605 720.887 38.691 721.561 38.4716C722.235 38.2522 723.591 37.4656 724.738 36.5242C725.886 35.583 726.809 34.1655 726.809 34.1655C726.809 34.1655 728.288 32.2228 729.182 30.7685C730.077 29.3143 730.231 28.9066 730.802 27.6742C731.372 26.4418 731.598 26.0178 731.808 25.0983C732.018 24.1788 732.018 23.0396 732.018 23.0396L730.332 21.1475L728.785 22.8735C728.785 22.8735 727.602 23.7594 726.674 23.9711C725.746 24.1828 725.564 24.0868 724.75 23.7937C723.936 23.5006 723.797 23.4346 723.221 22.7287C722.645 22.0228 722.372 20.8781 722.372 20.8781C722.372 20.8781 722.238 18.8533 722.226 18.4106C722.215 17.9681 722.287 17.5261 722.287 17.5261L719.068 18.0581Z" fill="#434343"/>
<defs>
<clipPath id="clip0_608_3862">
<rect width="48" height="48" fill="white" transform="translate(420.48)"/>
</clipPath>
</defs>
</svg>
