<svg width="408" height="48" viewBox="0 0 408 48" fill="none" xmlns="http://www.w3.org/2000/svg">
<path fill-rule="evenodd" clip-rule="evenodd" d="M6.01084 8.30392L6.54391 7.38142L7.40078 6.76605L8.16016 6.41992L40.9981 6.50692L41.8933 7.00192L42.8454 7.82055L42.9866 40.7073L42.3903 41.3547L41.1984 41.9069L7.89072 42.0464L6.73703 41.4888L5.91016 40.4891L6.01084 8.30392ZM7.78272 35.0909L41.1658 35.0684L41.2605 8.37161L7.90234 8.26961L7.78272 35.0909ZM14.778 39.8669L19.2125 39.9063L19.2332 39.2748L15.5377 39.2411L15.5745 38.5533L19.2033 38.5683L19.2328 38.0922L15.5996 38.0622C15.5996 38.0622 15.5908 37.304 15.6003 37.2129C15.6099 37.1217 19.2367 37.304 19.2367 37.304L19.2273 36.8277L14.8151 36.8454L14.778 39.8669ZM35.5905 39.6794L40.025 39.7188L40.0457 39.0873L36.3502 39.0536L36.387 38.3658L40.0158 38.3808L40.0453 37.9047L36.4121 37.8747C36.4121 37.8747 36.4033 37.1165 36.4128 37.0254C36.4224 36.9342 40.0492 37.1165 40.0492 37.1165L40.0398 36.6402L35.6276 36.6579L35.5905 39.6794ZM20.6508 36.8607L20.6278 39.7981L26.4602 39.8253L26.4643 36.8729L25.3667 36.8579L25.3983 39.0794L23.9357 39.1066L23.906 36.8791L22.9123 36.8452L22.934 39.1346L21.5085 39.0905L21.4685 36.8517L20.651 36.8607H20.6508ZM27.8927 36.8439L27.8229 39.8786L28.6397 39.8656C28.6397 39.8656 28.6115 36.8956 28.5877 36.8482C28.5639 36.8006 27.8927 36.8441 27.8927 36.8441V36.8439ZM9.02509 36.8712L8.99941 39.8812L9.84203 39.8617L9.84034 38.6795L11.685 38.7033L12.4061 39.7145L13.578 39.7235L12.6422 38.7183L13.439 38.1682L13.4017 36.7565L9.02509 36.8712ZM30.0251 36.8712L29.9994 39.8812L30.842 39.8617L30.8403 38.6795L32.685 38.7033L33.4061 39.7145L34.578 39.7235L33.6422 38.7183L34.439 38.1682L34.4017 36.7565L30.0251 36.8712Z" fill="#434343"/>
<path fill-rule="evenodd" clip-rule="evenodd" d="M9.88788 27.5564L14.0393 27.4973L16.8196 26.9586L19.4476 25.9011L20.5321 25.2668L21.8155 26.1184L23.377 26.8801L21.2397 28.1751L19.1637 29.2225L17.3374 29.8699L15.181 30.1919L9.89219 30.2894L9.88788 27.5564ZM9.81644 23.0357L12.1555 23.0535L13.5267 22.7269L14.8977 22.1309L16.6208 22.9836L18.3919 23.8405L16.2552 25.0399L14.0251 25.554L12.1602 25.8205L9.71875 25.858L9.81644 23.0357Z" fill="#434343"/>
<path fill-rule="evenodd" clip-rule="evenodd" d="M9.85938 20.0793L12.5826 20.2308L15.1345 21.1068L17.6862 22.2686L19.9137 23.3321L22.1987 24.8938L24.3888 26.3409L26.407 27.6722L29.0813 28.8566L31.7854 29.9803L33.2136 30.2278L39.2134 30.2265L39.2209 27.3812L34.4028 27.533L31.4624 26.6681L28.33 25.3035L25.8706 23.5743L23.2407 21.8257L20.545 20.3557L17.9714 18.9333L15.2086 17.6842L13.0324 17.1836L9.90025 17.2187L9.85938 20.0793Z" fill="#434343"/>
<path fill-rule="evenodd" clip-rule="evenodd" d="M9.90234 15.6453L13.9353 15.6548L16.1442 16.0928L18.4865 17.0641L20.6384 18.1684L23.3806 19.8063L25.5895 21.3678L28.465 23.1387L30.9978 24.4146L33.6067 25.4429L35.5492 25.8046L39.4417 25.8226L39.44 22.9975L36.1154 23.1308L33.0215 22.0737L30.0618 20.3819L26.7187 18.4594L23.645 16.441L20.7625 14.7683L18.0404 13.5096L16.2162 13.0098L15.3607 12.8359L9.92034 12.9558L9.90234 15.6453Z" fill="#434343"/>
<path fill-rule="evenodd" clip-rule="evenodd" d="M39.4507 19.9343L39.4944 16.9066L36.0739 16.9426L34.4786 17.2473L32.3831 17.8758L30.7491 18.6757L30.1339 19.0184L31.8454 19.8719L33.5591 20.8051L35.4442 20.2666L36.8916 19.9975L39.4507 19.9343ZM39.2334 15.5465L39.3238 12.5742L35.5948 12.5924L32.9237 12.6102L30.4629 13.2768L27.8685 14.4764L25.8697 15.9415L25.8844 16.318L27.1412 17.0607L28.5122 18.0128L30.3403 16.9748L32.4159 16.2635L35.0439 15.6852L39.2334 15.5465ZM10.0035 37.5014L9.98438 38.168L12.2237 38.1852L12.3189 37.4932L10.0035 37.5014ZM31.0035 37.5014L30.9844 38.168L33.2237 38.1852L33.3189 37.4932L31.0035 37.5014Z" fill="#434343"/>
<path fill-rule="evenodd" clip-rule="evenodd" d="M263.997 3.00013C259.012 3.0008 254.189 4.7752 250.392 8.00592C246.595 11.2366 244.071 15.7129 243.272 20.634C242.472 25.5551 243.45 30.6 246.03 34.8663C248.61 39.1326 252.623 42.3419 257.352 43.9201C258.402 44.1151 258.852 43.4701 258.852 42.9151V39.3451C253.017 40.6051 251.787 36.5251 251.787 36.5251C251.377 35.2394 250.513 34.1465 249.357 33.4501C247.452 32.1601 249.507 32.1751 249.507 32.1751C250.173 32.2691 250.808 32.5139 251.364 32.8909C251.92 33.2679 252.383 33.767 252.717 34.3501C253.298 35.3922 254.269 36.1609 255.417 36.4872C256.565 36.8135 257.795 36.6707 258.837 36.0901C258.922 35.0258 259.391 34.0288 260.157 33.2851C255.507 32.7451 250.602 30.9451 250.602 22.9051C250.568 20.817 251.342 18.7964 252.762 17.2651C252.119 15.4564 252.195 13.4701 252.972 11.7151C252.972 11.7151 254.727 11.1451 258.747 13.8601C262.184 12.9225 265.81 12.9225 269.247 13.8601C273.252 11.1451 275.007 11.7151 275.007 11.7151C275.785 13.4701 275.86 15.4564 275.217 17.2651C276.637 18.7964 277.411 20.817 277.377 22.9051C277.377 30.9751 272.472 32.7451 267.792 33.2701C268.294 33.7783 268.68 34.388 268.926 35.0581C269.172 35.7283 269.271 36.4433 269.217 37.1551V42.9151C269.217 43.6051 269.592 44.1301 270.717 43.9201C275.453 42.3399 279.47 39.1244 282.05 34.8503C284.629 30.5762 285.601 25.523 284.792 20.5969C283.983 15.6708 281.446 11.194 277.635 7.96928C273.824 4.74457 268.989 2.98288 263.997 3.00013Z" fill="#434343"/>
<g clip-path="url(#clip0_608_2993)">
<path d="M407.998 25.1537V20.7542C407.998 17.0312 404.275 15.0017 401.23 15.0017C399.111 15.1672 397.098 15.9959 395.476 17.3702C394.778 16.6335 393.939 16.0442 393.009 15.6371C392.079 15.2301 391.077 15.0135 390.061 15.0002C387.921 15.0732 385.879 15.9145 384.309 17.3702C383.737 16.5734 382.969 15.937 382.081 15.522C381.192 15.107 380.211 14.9273 379.233 15.0002C378.223 14.9221 377.212 15.1387 376.322 15.6238C375.432 16.1089 374.703 16.8417 374.221 17.7332L369.757 27.8612L364.798 16.5002C364.534 15.8944 364.04 15.4178 363.425 15.1745C362.81 14.9311 362.124 14.9407 361.516 15.2012C361.208 15.3328 360.93 15.5249 360.698 15.766C360.465 16.0071 360.283 16.2924 360.163 16.6049C360.043 16.9175 359.987 17.251 359.997 17.5857C360.008 17.9204 360.086 18.2496 360.226 18.5537L366.372 31.9217C366.372 31.9217 367.387 34.2917 369.417 34.2917C370.04 34.3841 370.676 34.2684 371.227 33.9625C371.778 33.6566 372.212 33.1776 372.463 32.5997C372.931 31.8947 376.485 24.4247 378.625 19.8947C378.708 19.72 378.848 19.5788 379.022 19.4942C379.196 19.4096 379.394 19.3868 379.582 19.4294C379.771 19.4719 379.94 19.5775 380.06 19.7285C380.181 19.8796 380.247 20.0673 380.247 20.2607V31.4912C380.238 32.19 380.493 32.8664 380.962 33.3846C381.431 33.9029 382.078 34.2248 382.774 34.2857C383.144 34.3103 383.515 34.2588 383.864 34.1342C384.214 34.0096 384.533 33.8146 384.804 33.5613C385.075 33.308 385.291 33.0019 385.438 32.6618C385.586 32.3217 385.662 31.9549 385.662 31.5842V22.2767C385.679 21.5252 385.99 20.8103 386.527 20.285C387.065 19.7596 387.786 19.4654 388.538 19.4654C389.29 19.4654 390.012 19.7596 390.549 20.285C391.087 20.8103 391.397 21.5252 391.414 22.2767V31.5842C391.414 32.3023 391.7 32.9909 392.207 33.4987C392.715 34.0065 393.404 34.2917 394.122 34.2917C394.84 34.2917 395.529 34.0065 396.036 33.4987C396.544 32.9909 396.829 32.3023 396.829 31.5842V22.2767C396.829 21.5137 397.132 20.7819 397.672 20.2424C398.212 19.7028 398.943 19.3997 399.706 19.3997C400.469 19.3997 401.201 19.7028 401.741 20.2424C402.28 20.7819 402.583 21.5137 402.583 22.2767V31.5842C402.583 32.3023 402.869 32.9909 403.376 33.4987C403.884 34.0065 404.573 34.2917 405.291 34.2917C406.009 34.2917 406.698 34.0065 407.205 33.4987C407.713 32.9909 407.998 32.3023 407.998 31.5842V25.1537Z" fill="#434343"/>
</g>
<path fill-rule="evenodd" clip-rule="evenodd" d="M136.996 18.27C136.996 18.27 136.136 18.27 136.001 18.0815C135.865 17.8931 135.709 17.5207 135.72 16.9728C135.73 16.4251 135.824 16.3691 136.045 15.881C136.265 15.3928 136.343 15.2073 136.741 14.7112C137.14 14.2151 137.295 14.0467 137.91 13.5575C138.525 13.0685 138.555 12.9881 139.255 12.7115C139.955 12.435 140.305 12.299 141.365 12.1925C142.425 12.0864 142.204 12.1173 143.009 12.3352C143.815 12.5531 143.954 12.5565 144.8 13.122C145.645 13.6873 146.374 14.5863 146.374 14.5863L147.278 12.8544L148.64 11.0675L150.741 8.89589L151.553 8.87695L151.814 9.75633L150.75 10.7576L149.095 12.8707L147.859 15.2302C147.859 15.2302 148.978 15.1443 150.073 15.3403C151.168 15.5362 151.06 15.4006 151.916 15.956C152.771 16.5114 153.139 16.5875 153.916 17.8363C154.692 19.085 154.681 19.184 154.84 20.6583C154.998 22.1326 154.951 22.2731 154.506 23.3274C154.06 24.3817 153.127 24.7102 153.127 24.7102L151.995 23.9865C151.995 23.9865 151.966 24.7059 151.775 25.3275C151.584 25.9488 151.345 26.688 150.788 27.921C150.232 29.154 150.063 29.562 149.205 31.0231C148.346 32.4845 148.355 32.4249 147.412 33.6663C146.469 34.908 146.377 35.0253 145.263 36.2145C144.149 37.4034 144.249 37.5532 143.067 38.3036C141.886 39.0538 140.255 39.3941 140.255 39.3941C140.255 39.3941 138.898 39.3736 137.754 38.6445C136.61 37.9155 136.136 36.7693 136.136 36.7693C136.136 36.7693 135.579 35.4018 135.219 33.9268C134.859 32.4521 134.894 32.601 134.785 31.2324C134.675 29.864 134.7 29.6238 134.747 28.0243C134.794 26.4245 134.749 26.4196 134.971 24.885C135.192 23.3503 135.198 23.0336 135.705 21.3791C136.212 19.7244 136.996 18.27 136.996 18.27ZM138.263 18.0581C138.263 18.0581 137.329 19.2811 136.671 21.1305C136.013 22.9796 135.759 25.0948 135.759 25.0948C135.759 25.0948 135.561 26.5222 135.538 28.2496C135.515 29.9773 135.457 29.9797 135.672 31.71C135.887 33.4402 136.075 34.0704 136.39 35.106C136.706 36.1415 137.288 37.0156 137.288 37.0156C137.288 37.0156 137.943 38.0175 138.828 38.3891C139.713 38.7605 140.082 38.691 140.756 38.4716C141.43 38.2522 142.786 37.4656 143.934 36.5242C145.081 35.583 146.004 34.1655 146.004 34.1655C146.004 34.1655 147.483 32.2228 148.378 30.7685C149.272 29.3143 149.426 28.9066 149.997 27.6742C150.568 26.4418 150.793 26.0178 151.003 25.0983C151.213 24.1788 151.213 23.0396 151.213 23.0396L149.527 21.1475L147.98 22.8735C147.98 22.8735 146.797 23.7594 145.869 23.9711C144.941 24.1828 144.76 24.0868 143.945 23.7937C143.131 23.5006 142.992 23.4346 142.417 22.7287C141.841 22.0228 141.567 20.8781 141.567 20.8781C141.567 20.8781 141.433 18.8533 141.422 18.4106C141.41 17.9681 141.482 17.5261 141.482 17.5261L138.263 18.0581Z" fill="#434343"/>
<defs>
<clipPath id="clip0_608_2993">
<rect width="48" height="48" fill="white" transform="translate(360)"/>
</clipPath>
</defs>
</svg>
