<svg width="24" height="24" viewBox="0 0 24 24" fill="none" xmlns="http://www.w3.org/2000/svg">
<path fill-rule="evenodd" clip-rule="evenodd" d="M2.29289 2.29289C2.68342 1.90237 3.31658 1.90237 3.70711 2.29289L17.9832 16.569C18.0385 16.6134 18.0897 16.6643 18.1356 16.7214L21.7071 20.2929C22.0976 20.6834 22.0976 21.3166 21.7071 21.7071C21.3166 22.0976 20.6834 22.0976 20.2929 21.7071L17.206 18.6203C15.6047 19.5367 13.8653 20 12 20C7.51999 20 3.9072 17.3529 1.13177 12.4962C0.956057 12.1887 0.956079 11.8112 1.13182 11.5037C2.30972 9.44307 3.63695 7.77713 5.12709 6.5413L2.29289 3.70711C1.90237 3.31658 1.90237 2.68342 2.29289 2.29289ZM6.54861 7.96283C5.34564 8.92592 4.2122 10.2612 3.15993 12.0001C5.65785 16.1306 8.61281 18 12 18C13.3253 18 14.5638 17.7158 15.7281 17.1423L13.2939 14.7081C12.8928 14.9002 12.4501 15.0026 11.9969 15.0024C11.2011 15.0021 10.4381 14.6857 9.87561 14.1229C9.31312 13.56 8.99728 12.7967 8.99756 12.0009C8.99772 11.5485 9.10008 11.1065 9.29186 10.7061L6.54861 7.96283ZM11.2358 12.65L11.35 12.7642C11.3294 12.7467 11.3095 12.7284 11.2903 12.7091C11.2713 12.6901 11.2531 12.6704 11.2358 12.65ZM9.63803 6.32643C10.4049 6.10707 11.1989 5.99717 11.9965 5.99999L12 6C15.3872 6 18.3422 7.86945 20.8401 11.9999C20.1793 13.092 19.486 14.0266 18.7626 14.8092C18.3878 15.2148 18.4127 15.8475 18.8182 16.2224C19.2238 16.5972 19.8565 16.5723 20.2314 16.1668C21.1827 15.1375 22.0598 13.9104 22.8682 12.4963C23.0439 12.1888 23.0439 11.8113 22.8682 11.5038C20.0932 6.64773 16.481 4.0007 12.0018 4C11.0164 3.99667 10.0354 4.13254 9.08797 4.40356C8.55698 4.55546 8.24967 5.10905 8.40157 5.64003C8.55346 6.17102 9.10705 6.47833 9.63803 6.32643Z" fill="#111111"/>
</svg>
