<svg width="40" height="40" viewBox="0 0 40 40" fill="none" xmlns="http://www.w3.org/2000/svg">
<rect width="40" height="40" rx="12" fill="#EEEEEE"/>
<path d="M28.0859 17.0969C28.2944 16.8902 28.4082 16.6272 28.4082 16.3172C28.4082 15.6971 27.9152 15.1992 27.2896 15.1992C26.9768 15.1992 26.6924 15.3307 26.4744 15.5468L19.9906 22.123L13.5257 15.5468C13.3077 15.3307 13.0138 15.1992 12.7105 15.1992C12.0848 15.1992 11.5919 15.6971 11.5919 16.3172C11.5919 16.6272 11.7057 16.8902 11.9142 17.0969L19.1185 24.4059C19.3649 24.6689 19.6683 24.7911 20 24.8004C20.3318 24.8004 20.6162 24.6689 20.8721 24.4059L28.0859 17.0969Z" fill="#111111"/>
</svg>
