<svg width="40" height="40" viewBox="0 0 40 40" fill="none" xmlns="http://www.w3.org/2000/svg">
<rect width="40" height="40" rx="12" fill="#EEEEEE"/>
<path d="M28.0857 17.0979C28.2943 16.8912 28.408 16.6282 28.408 16.3181C28.408 15.6981 27.9151 15.2002 27.2895 15.2002C26.9767 15.2002 26.6923 15.3317 26.4743 15.5478L19.9904 22.124L13.5256 15.5478C13.3075 15.3317 13.0137 15.2002 12.7104 15.2002C12.0847 15.2002 11.5918 15.6981 11.5918 16.3181C11.5918 16.6282 11.7055 16.8912 11.9141 17.0979L19.1183 24.4069C19.3648 24.6699 19.6681 24.792 19.9999 24.8014C20.3317 24.8014 20.6161 24.6699 20.872 24.4069L28.0857 17.0979Z" fill="#111111"/>
</svg>
