<svg width="40" height="40" viewBox="0 0 40 40" fill="none" xmlns="http://www.w3.org/2000/svg">
<rect width="40" height="40" rx="12" fill="white"/>
<path d="M18.0647 14.6095C17.9269 14.4705 17.7515 14.3946 17.5449 14.3946C17.1315 14.3946 16.7996 14.7233 16.7996 15.1403C16.7996 15.3489 16.8872 15.5385 17.0313 15.6838L21.4154 20.0064L17.0313 24.3163C16.8872 24.4616 16.7996 24.6575 16.7996 24.8598C16.7996 25.2769 17.1315 25.6055 17.5449 25.6055C17.7515 25.6055 17.9269 25.5296 18.0647 25.3906L22.9373 20.5878C23.1127 20.4235 23.1941 20.2212 23.2004 20.0001C23.2004 19.7789 23.1127 19.5893 22.9373 19.4187L18.0647 14.6095Z" fill="#111111"/>
</svg>
