<svg width="72" height="24" viewBox="0 0 72 24" fill="none" xmlns="http://www.w3.org/2000/svg">
<g clip-path="url(#clip0_8_749)">
<path d="M39.7106 0.790588C39.1741 0.254118 38.4965 0 37.6212 0C36.7459 0 36.0682 0.254118 35.56 0.790588C35.0518 1.32706 34.7694 1.97647 34.7694 2.73882C34.7694 3.50118 35.0235 4.15059 35.56 4.68706C36.0682 5.19529 36.7741 5.44941 37.6212 5.44941C38.4682 5.44941 39.1741 5.19529 39.7106 4.68706C40.2471 4.17882 40.5012 3.52941 40.5012 2.73882C40.5012 1.94824 40.2471 1.29882 39.7106 0.790588M34.3741 23.6047H40.9812C40.5012 21.7412 40.2753 19.3129 40.2753 16.2918V12.4235C40.2753 9.76941 40.3318 8.10353 40.4729 7.45412C39.7671 7.79294 38.8635 7.96235 37.7341 7.96235C36.6047 7.96235 35.6729 7.79294 34.9106 7.45412C35.0518 8.13176 35.1082 9.79765 35.1082 12.4235V16.2918C35.1082 19.1718 34.8824 21.6 34.4024 23.6047" fill="#111111"/>
<path d="M12.1812 18.0141C12.1812 19.3694 11.5882 24 5.37649 24C-0.835279 24 1.36707 22.9553 1.00001 22.927L1.62119 18.0423C1.73413 18.2118 2.69413 19.4541 4.78354 19.4541C6.87296 19.4541 6.95766 18.9176 6.95766 17.4212C6.95766 15.9247 5.6306 15.4729 5.6306 13.6659C5.6306 11.8588 6.95766 11.04 6.95766 9.62823C6.95766 8.21647 5.6306 7.59529 5.6306 5.59059C5.6306 3.58588 6.95766 2.99294 6.95766 1.75059C6.95766 0.508235 6.47766 0 6.47766 0H11.7294C11.7294 0 12.153 0.564706 12.153 1.58118C12.153 3.07765 10.8259 4.20706 10.8259 5.50588C10.8259 6.8047 12.153 7.73647 12.153 9.43059C12.153 11.1247 10.8541 12.4235 10.8541 13.6941C10.8541 14.9647 12.2094 16.0094 12.2094 18.0141" fill="#111111"/>
<path d="M31.24 13.835C31.24 11.4068 31.4659 9.2609 31.9459 7.42561H25.3388C25.8188 8.86561 26.0447 11.068 26.0447 14.0044V16.0938C26.0447 17.2233 25.7906 18.155 25.2259 18.8891C24.6894 19.6233 23.9835 19.9903 23.1647 19.9903C22.3459 19.9903 21.7247 19.6515 21.2729 19.0021C20.8212 18.3527 20.6235 17.4209 20.6235 16.2633V14.0044C20.6235 11.548 20.8494 9.34561 21.3294 7.36914H14.7788C15.2306 9.23267 15.4565 11.5762 15.4565 14.3715V17.1103C15.4565 19.3409 15.9365 21.035 16.8682 22.1927C17.8 23.3221 19.1553 23.915 20.9059 23.915C23.3906 23.915 25 22.5315 25.7906 19.7362H26.0729V20.0185C26.0729 21.3738 25.847 22.5315 25.367 23.5197H31.9741C31.4941 21.6562 31.2682 19.3974 31.2682 16.7433V13.7786L31.24 13.835Z" fill="#111111"/>
<path d="M51.7953 20.0186C50.4965 20.0186 49.48 19.6233 48.7741 18.8327C48.04 18.0421 47.7012 16.9409 47.7012 15.5292C47.7012 14.1174 48.04 13.0162 48.7176 12.2256C49.3953 11.4351 50.3553 11.0398 51.5694 11.0398C52.7835 11.0398 54.0823 11.4068 54.9859 12.1692L55.1553 7.90565C54.6753 7.67977 53.9976 7.48212 53.1223 7.31271C52.247 7.1433 51.4847 7.05859 50.807 7.05859C48.1812 7.05859 46.1765 7.82095 44.7929 9.37389C43.4094 10.9268 42.7318 12.9598 42.7318 15.5292C42.7318 18.0986 43.4094 20.1598 44.7647 21.7127C46.12 23.2374 48.1247 23.9998 50.7788 23.9998C53.4329 23.9998 54.3647 23.7174 55.5506 23.1245V18.8045C54.5059 19.6233 53.2353 20.0186 51.767 20.0186" fill="#111111"/>
<path d="M62.3835 11.6338C62.8635 11.0126 63.4565 10.6738 64.1059 10.6738C65.6024 10.6738 66.3647 11.5491 66.3647 13.2997C66.3647 15.0502 66.1671 14.5985 65.7435 15.0785C65.32 15.5585 64.8118 15.7844 64.2188 15.7844C63.0047 15.7844 62.1012 15.3044 61.5365 14.3444C61.6212 13.1867 61.9035 12.2832 62.3835 11.6338ZM66.1388 20.2173C64.8682 20.2173 63.7953 19.8502 62.8918 19.0879C61.9882 18.3255 61.5082 17.3655 61.4235 16.2079L61.6212 16.1232C62.8071 17.1397 64.3035 17.6479 66.1388 17.6479C67.9741 17.6479 68.8212 17.2244 69.7247 16.3491C70.6282 15.4738 71.08 14.3161 71.08 12.9044C71.08 11.4926 70.5435 9.62907 69.4424 8.6126C68.3412 7.59613 66.6471 7.08789 64.36 7.08789C62.0729 7.08789 60.1812 7.85024 58.8259 9.37495C57.4706 10.8997 56.7647 12.9326 56.7647 15.4173C56.7647 17.902 57.4988 20.1891 58.9953 21.7138C60.4918 23.2385 62.4965 24.0008 64.9812 24.0008C67.4659 24.0008 69.4141 23.5208 70.7129 22.5891L70.5153 18.4385C69.5271 19.6244 68.0588 20.2173 66.1106 20.2173" fill="#111111"/>
</g>
<defs>
<clipPath id="clip0_8_749">
<rect width="72" height="24" fill="white"/>
</clipPath>
</defs>
</svg>
