<svg width="8" height="14" viewBox="0 0 8 14" fill="none" xmlns="http://www.w3.org/2000/svg">
<g clip-path="url(#clip0_1_100)">
<path d="M7.53196 10.4364C7.53196 11.2108 7.19313 13.8569 3.64355 13.8569C0.0939738 13.8569 1.35246 13.2599 1.14271 13.2437L1.49767 10.4525C1.56221 10.5493 2.11078 11.2592 3.30473 11.2592C4.49868 11.2592 4.54708 10.9527 4.54708 10.0975C4.54708 9.2424 3.78876 8.98425 3.78876 7.95165C3.78876 6.91905 4.54708 6.45115 4.54708 5.64442C4.54708 4.8377 3.78876 4.48274 3.78876 3.3372C3.78876 2.19165 4.54708 1.85283 4.54708 1.14291C4.54708 0.432998 4.2728 0.142578 4.2728 0.142578H7.27381C7.27381 0.142578 7.51582 0.465267 7.51582 1.04611C7.51582 1.90123 6.7575 2.54661 6.7575 3.28879C6.7575 4.03098 7.51582 4.56342 7.51582 5.53148C7.51582 6.49955 6.77364 7.24173 6.77364 7.96778C6.77364 8.69383 7.54809 9.29081 7.54809 10.4364" fill="white"/>
</g>
<defs>
<clipPath id="clip0_1_100">
<rect width="6.85714" height="13.7143" fill="white" transform="translate(0.571289 0.142578)"/>
</clipPath>
</defs>
</svg>
