<svg width="8" height="14" viewBox="0 0 8 14" fill="none" xmlns="http://www.w3.org/2000/svg">
<g clip-path="url(#clip0_1_172)">
<path d="M7.53199 10.4364C7.53199 11.2108 7.19316 13.8569 3.64358 13.8569C0.0940043 13.8569 1.35249 13.2599 1.14274 13.2437L1.4977 10.4525C1.56224 10.5493 2.11081 11.2592 3.30476 11.2592C4.49871 11.2592 4.54711 10.9527 4.54711 10.0975C4.54711 9.2424 3.78879 8.98425 3.78879 7.95165C3.78879 6.91905 4.54711 6.45115 4.54711 5.64442C4.54711 4.8377 3.78879 4.48274 3.78879 3.3372C3.78879 2.19165 4.54711 1.85283 4.54711 1.14291C4.54711 0.432998 4.27283 0.142578 4.27283 0.142578H7.27384C7.27384 0.142578 7.51585 0.465267 7.51585 1.04611C7.51585 1.90123 6.75753 2.54661 6.75753 3.28879C6.75753 4.03098 7.51585 4.56342 7.51585 5.53148C7.51585 6.49955 6.77367 7.24173 6.77367 7.96778C6.77367 8.69383 7.54812 9.29081 7.54812 10.4364" fill="white"/>
</g>
<defs>
<clipPath id="clip0_1_172">
<rect width="6.85714" height="13.7143" fill="white" transform="translate(0.571289 0.142578)"/>
</clipPath>
</defs>
</svg>
