<svg width="8" height="14" viewBox="0 0 8 14" fill="none" xmlns="http://www.w3.org/2000/svg">
<g clip-path="url(#clip0_1_118)">
<path d="M7.53186 10.4364C7.53186 11.2108 7.19304 13.8569 3.64346 13.8569C0.0938822 13.8569 1.35237 13.2599 1.14262 13.2437L1.49758 10.4525C1.56212 10.5493 2.11069 11.2592 3.30464 11.2592C4.49859 11.2592 4.54699 10.9527 4.54699 10.0975C4.54699 9.2424 3.78867 8.98425 3.78867 7.95165C3.78867 6.91905 4.54699 6.45115 4.54699 5.64442C4.54699 4.8377 3.78867 4.48274 3.78867 3.3372C3.78867 2.19165 4.54699 1.85283 4.54699 1.14291C4.54699 0.432998 4.27271 0.142578 4.27271 0.142578H7.27371C7.27371 0.142578 7.51573 0.465267 7.51573 1.04611C7.51573 1.90123 6.75741 2.54661 6.75741 3.28879C6.75741 4.03098 7.51573 4.56342 7.51573 5.53148C7.51573 6.49955 6.77355 7.24173 6.77355 7.96778C6.77355 8.69383 7.548 9.29081 7.548 10.4364" fill="white"/>
</g>
<defs>
<clipPath id="clip0_1_118">
<rect width="6.85714" height="13.7143" fill="white" transform="translate(0.571289 0.142578)"/>
</clipPath>
</defs>
</svg>
